<mxfile host="app.diagrams.net" agent="Mozilla/5.0 (Windows NT 10.0; Win64; x64) AppleWebKit/537.36 (KHTML, like Gecko) Chrome/135.0.0.0 Safari/537.36" version="26.2.5">
  <diagram id="prtHgNgQTEPvFCAcTncT" name="Page-1">
    <mxGraphModel dx="816" dy="507" grid="0" gridSize="10" guides="1" tooltips="1" connect="1" arrows="1" fold="1" page="0" pageScale="1" pageWidth="827" pageHeight="1169" math="0" shadow="0">
      <root>
        <mxCell id="0" />
        <mxCell id="1" parent="0" />
        <mxCell id="Vz9aFdPQ2xJ0MJbCfHlJ-26" value="" style="rounded=1;whiteSpace=wrap;html=1;dashed=1;fillColor=#ffe6cc;strokeColor=#d79b00;" vertex="1" parent="1">
          <mxGeometry x="34" y="14" width="134" height="416" as="geometry" />
        </mxCell>
        <mxCell id="Vz9aFdPQ2xJ0MJbCfHlJ-25" value="" style="rounded=1;whiteSpace=wrap;html=1;dashed=1;fillColor=#fff2cc;strokeColor=#d6b656;" vertex="1" parent="1">
          <mxGeometry x="189" y="15" width="465" height="421" as="geometry" />
        </mxCell>
        <mxCell id="Vz9aFdPQ2xJ0MJbCfHlJ-4" style="edgeStyle=orthogonalEdgeStyle;shape=flexArrow;rounded=0;orthogonalLoop=1;jettySize=auto;html=1;exitX=0.25;exitY=1;exitDx=0;exitDy=0;entryX=0.5;entryY=0;entryDx=0;entryDy=0;fillColor=#d5e8d4;strokeColor=#82b366;" edge="1" parent="1" source="Vz9aFdPQ2xJ0MJbCfHlJ-1" target="Vz9aFdPQ2xJ0MJbCfHlJ-2">
          <mxGeometry relative="1" as="geometry">
            <Array as="points">
              <mxPoint x="360" y="130" />
              <mxPoint x="270" y="130" />
            </Array>
          </mxGeometry>
        </mxCell>
        <mxCell id="Vz9aFdPQ2xJ0MJbCfHlJ-5" style="edgeStyle=orthogonalEdgeStyle;shape=flexArrow;rounded=0;orthogonalLoop=1;jettySize=auto;html=1;entryX=0.5;entryY=0;entryDx=0;entryDy=0;fillColor=#d5e8d4;strokeColor=#82b366;" edge="1" parent="1" target="Vz9aFdPQ2xJ0MJbCfHlJ-3">
          <mxGeometry relative="1" as="geometry">
            <mxPoint x="420" y="100" as="sourcePoint" />
            <mxPoint x="510" y="210" as="targetPoint" />
            <Array as="points">
              <mxPoint x="420" y="130" />
              <mxPoint x="510" y="130" />
            </Array>
          </mxGeometry>
        </mxCell>
        <mxCell id="Vz9aFdPQ2xJ0MJbCfHlJ-1" value="&lt;font style=&quot;font-size: 14px;&quot;&gt;训练一个准确率更高计算效率更高的Basecall&lt;/font&gt;" style="rounded=1;whiteSpace=wrap;html=1;fillColor=#f5f5f5;strokeColor=#666666;fontColor=#333333;" vertex="1" parent="1">
          <mxGeometry x="326" y="28" width="137" height="72" as="geometry" />
        </mxCell>
        <mxCell id="Vz9aFdPQ2xJ0MJbCfHlJ-2" value="&lt;font style=&quot;font-size: 18px;&quot;&gt;数据创新&lt;/font&gt;" style="ellipse;whiteSpace=wrap;html=1;fillColor=#dae8fc;strokeColor=#6c8ebf;" vertex="1" parent="1">
          <mxGeometry x="210" y="170" width="120" height="80" as="geometry" />
        </mxCell>
        <mxCell id="Vz9aFdPQ2xJ0MJbCfHlJ-3" value="&lt;font style=&quot;font-size: 20px;&quot;&gt;模型创新&lt;/font&gt;" style="ellipse;whiteSpace=wrap;html=1;fillColor=#dae8fc;strokeColor=#6c8ebf;" vertex="1" parent="1">
          <mxGeometry x="450" y="160" width="120" height="80" as="geometry" />
        </mxCell>
        <mxCell id="Vz9aFdPQ2xJ0MJbCfHlJ-7" value="&lt;i&gt;合成数据&lt;/i&gt;" style="shape=note;whiteSpace=wrap;html=1;backgroundOutline=1;darkOpacity=0.05;fillColor=#f8cecc;strokeColor=#b85450;" vertex="1" parent="1">
          <mxGeometry x="230" y="310" width="80" height="100" as="geometry" />
        </mxCell>
        <mxCell id="Vz9aFdPQ2xJ0MJbCfHlJ-9" value="&lt;i&gt;新架构&lt;/i&gt;" style="shape=note;whiteSpace=wrap;html=1;backgroundOutline=1;darkOpacity=0.05;fillColor=#f8cecc;strokeColor=#b85450;" vertex="1" parent="1">
          <mxGeometry x="414" y="310" width="80" height="100" as="geometry" />
        </mxCell>
        <mxCell id="Vz9aFdPQ2xJ0MJbCfHlJ-10" value="&lt;i&gt;MoE&lt;/i&gt;" style="shape=note;whiteSpace=wrap;html=1;backgroundOutline=1;darkOpacity=0.05;fillColor=#f8cecc;strokeColor=#b85450;" vertex="1" parent="1">
          <mxGeometry x="540" y="310" width="80" height="100" as="geometry" />
        </mxCell>
        <mxCell id="Vz9aFdPQ2xJ0MJbCfHlJ-12" style="edgeStyle=orthogonalEdgeStyle;shape=flexArrow;rounded=0;orthogonalLoop=1;jettySize=auto;html=1;entryX=0.45;entryY=0;entryDx=0;entryDy=0;entryPerimeter=0;exitX=0.5;exitY=1;exitDx=0;exitDy=0;fillColor=#d5e8d4;strokeColor=#82b366;" edge="1" parent="1" source="Vz9aFdPQ2xJ0MJbCfHlJ-3" target="Vz9aFdPQ2xJ0MJbCfHlJ-9">
          <mxGeometry relative="1" as="geometry">
            <mxPoint x="590" y="300" as="sourcePoint" />
          </mxGeometry>
        </mxCell>
        <mxCell id="Vz9aFdPQ2xJ0MJbCfHlJ-13" style="edgeStyle=orthogonalEdgeStyle;shape=flexArrow;rounded=0;orthogonalLoop=1;jettySize=auto;html=1;entryX=0.5;entryY=0;entryDx=0;entryDy=0;entryPerimeter=0;fillColor=#d5e8d4;strokeColor=#82b366;" edge="1" parent="1" source="Vz9aFdPQ2xJ0MJbCfHlJ-3" target="Vz9aFdPQ2xJ0MJbCfHlJ-10">
          <mxGeometry relative="1" as="geometry" />
        </mxCell>
        <mxCell id="Vz9aFdPQ2xJ0MJbCfHlJ-14" style="edgeStyle=orthogonalEdgeStyle;shape=flexArrow;rounded=0;orthogonalLoop=1;jettySize=auto;html=1;entryX=0.5;entryY=0;entryDx=0;entryDy=0;entryPerimeter=0;fillColor=#d5e8d4;strokeColor=#82b366;" edge="1" parent="1" source="Vz9aFdPQ2xJ0MJbCfHlJ-2" target="Vz9aFdPQ2xJ0MJbCfHlJ-7">
          <mxGeometry relative="1" as="geometry" />
        </mxCell>
        <mxCell id="Vz9aFdPQ2xJ0MJbCfHlJ-22" style="edgeStyle=orthogonalEdgeStyle;rounded=0;orthogonalLoop=1;jettySize=auto;html=1;" edge="1" parent="1" source="Vz9aFdPQ2xJ0MJbCfHlJ-16">
          <mxGeometry relative="1" as="geometry">
            <mxPoint x="322.1587611607142" y="64" as="targetPoint" />
          </mxGeometry>
        </mxCell>
        <mxCell id="Vz9aFdPQ2xJ0MJbCfHlJ-16" value="" style="verticalLabelPosition=bottom;verticalAlign=top;html=1;shape=mxgraph.basic.rounded_frame;dx=10;whiteSpace=wrap;fillColor=#e1d5e7;strokeColor=#9673a6;" vertex="1" parent="1">
          <mxGeometry x="55" y="34" width="100" height="60" as="geometry" />
        </mxCell>
        <mxCell id="Vz9aFdPQ2xJ0MJbCfHlJ-17" value="研究目标" style="text;strokeColor=#666666;align=center;fillColor=#f5f5f5;html=1;verticalAlign=middle;whiteSpace=wrap;rounded=0;fontColor=#333333;" vertex="1" parent="1">
          <mxGeometry x="72.99876116071434" y="49.00475027901789" width="60" height="30" as="geometry" />
        </mxCell>
        <mxCell id="Vz9aFdPQ2xJ0MJbCfHlJ-23" style="edgeStyle=orthogonalEdgeStyle;rounded=0;orthogonalLoop=1;jettySize=auto;html=1;" edge="1" parent="1" source="Vz9aFdPQ2xJ0MJbCfHlJ-18">
          <mxGeometry relative="1" as="geometry">
            <mxPoint x="207.36512974330356" y="210" as="targetPoint" />
          </mxGeometry>
        </mxCell>
        <mxCell id="Vz9aFdPQ2xJ0MJbCfHlJ-18" value="" style="verticalLabelPosition=bottom;verticalAlign=top;html=1;shape=mxgraph.basic.rounded_frame;dx=10;whiteSpace=wrap;fillColor=#e1d5e7;strokeColor=#9673a6;" vertex="1" parent="1">
          <mxGeometry x="55" y="180" width="100" height="60" as="geometry" />
        </mxCell>
        <mxCell id="Vz9aFdPQ2xJ0MJbCfHlJ-19" value="研究方向" style="text;strokeColor=#6c8ebf;align=center;fillColor=#dae8fc;html=1;verticalAlign=middle;whiteSpace=wrap;rounded=0;" vertex="1" parent="1">
          <mxGeometry x="75.00161830357145" y="194.99903599330355" width="60" height="30" as="geometry" />
        </mxCell>
        <mxCell id="Vz9aFdPQ2xJ0MJbCfHlJ-24" style="edgeStyle=orthogonalEdgeStyle;rounded=0;orthogonalLoop=1;jettySize=auto;html=1;" edge="1" parent="1" source="Vz9aFdPQ2xJ0MJbCfHlJ-20">
          <mxGeometry relative="1" as="geometry">
            <mxPoint x="224.63494001116078" y="362" as="targetPoint" />
          </mxGeometry>
        </mxCell>
        <mxCell id="Vz9aFdPQ2xJ0MJbCfHlJ-20" value="" style="verticalLabelPosition=bottom;verticalAlign=top;html=1;shape=mxgraph.basic.rounded_frame;dx=10;whiteSpace=wrap;fillColor=#e1d5e7;strokeColor=#9673a6;" vertex="1" parent="1">
          <mxGeometry x="50.3" y="332" width="100" height="60" as="geometry" />
        </mxCell>
        <mxCell id="Vz9aFdPQ2xJ0MJbCfHlJ-21" value="实现方法" style="text;strokeColor=#b85450;align=center;fillColor=#f8cecc;html=1;verticalAlign=middle;whiteSpace=wrap;rounded=0;" vertex="1" parent="1">
          <mxGeometry x="70.30161830357144" y="346.99903599330355" width="60" height="30" as="geometry" />
        </mxCell>
        <mxCell id="Vz9aFdPQ2xJ0MJbCfHlJ-33" value="模型约束条件" style="swimlane;whiteSpace=wrap;html=1;fillColor=#f5f5f5;fontColor=#333333;strokeColor=#666666;startSize=28;" vertex="1" parent="1">
          <mxGeometry x="111" y="537" width="144" height="200" as="geometry">
            <mxRectangle x="75" y="550" width="83" height="28" as="alternateBounds" />
          </mxGeometry>
        </mxCell>
        <mxCell id="Vz9aFdPQ2xJ0MJbCfHlJ-30" value="参数量&amp;lt;8k" style="rounded=1;whiteSpace=wrap;html=1;fillColor=#e1d5e7;strokeColor=#9673a6;" vertex="1" parent="Vz9aFdPQ2xJ0MJbCfHlJ-33">
          <mxGeometry x="28" y="44" width="92" height="30" as="geometry" />
        </mxCell>
        <mxCell id="Vz9aFdPQ2xJ0MJbCfHlJ-31" value="逐Cycle推理" style="rounded=1;whiteSpace=wrap;html=1;fillColor=#f8cecc;strokeColor=#b85450;" vertex="1" parent="Vz9aFdPQ2xJ0MJbCfHlJ-33">
          <mxGeometry x="28" y="91" width="92" height="31" as="geometry" />
        </mxCell>
        <mxCell id="Vz9aFdPQ2xJ0MJbCfHlJ-32" value="计算复杂度低" style="rounded=1;whiteSpace=wrap;html=1;fillColor=#fff2cc;strokeColor=#d6b656;" vertex="1" parent="Vz9aFdPQ2xJ0MJbCfHlJ-33">
          <mxGeometry x="28" y="139" width="91" height="32" as="geometry" />
        </mxCell>
        <mxCell id="Vz9aFdPQ2xJ0MJbCfHlJ-36" value="&lt;b&gt;&lt;font style=&quot;font-size: 15px;&quot;&gt;预期解决方案&lt;/font&gt;&lt;/b&gt;" style="swimlane;fontStyle=0;childLayout=stackLayout;horizontal=1;startSize=26;fillColor=#dae8fc;horizontalStack=0;resizeParent=1;resizeParentMax=0;resizeLast=0;collapsible=1;marginBottom=0;html=1;strokeColor=#6c8ebf;" vertex="1" parent="1">
          <mxGeometry x="381" y="511" width="239" height="252" as="geometry" />
        </mxCell>
        <mxCell id="Vz9aFdPQ2xJ0MJbCfHlJ-37" value="&lt;b&gt;&lt;font style=&quot;font-size: 14px;line-height:1.5;&quot;&gt;MoE&lt;/font&gt;&lt;/b&gt;：由于测序试剂，读长多样化等原因，推理时少量参数很难满足多场景需求，因此我希望使用MoE实现不同激活参数满足不同场景的需求。" style="text;strokeColor=#d6b656;fillColor=#fff2cc;align=left;verticalAlign=top;spacingLeft=4;spacingRight=4;overflow=hidden;rotatable=0;points=[[0,0.5],[1,0.5]];portConstraint=eastwest;whiteSpace=wrap;html=1;spacingTop=0;spacingBottom=3;spacing=3;" vertex="1" parent="Vz9aFdPQ2xJ0MJbCfHlJ-36">
          <mxGeometry y="26" width="239" height="88" as="geometry" />
        </mxCell>
        <mxCell id="Vz9aFdPQ2xJ0MJbCfHlJ-39" value="&lt;font face=&quot;Helvetica&quot;&gt;&lt;b style=&quot;&quot;&gt;&lt;font style=&quot;font-size: 14px;&quot;&gt;新backbone架构&lt;/font&gt;&lt;/b&gt;：&lt;span style=&quot;background-color: transparent;&quot;&gt;近年来随着大模型迅速发展，出现了众多用于处理时间序列问题且线性时间复杂度的新架构（LinearRNN,SSM,Delta家族等），我希望通过参考这些新架构为测序仪设计一个专用架构代替现有的RNN实现更高测序精度和更低时间复杂度，以及可部署性。&lt;/span&gt;&lt;/font&gt;&lt;div&gt;&lt;span style=&quot;background-color: transparent; color: light-dark(rgb(0, 0, 0), rgb(255, 255, 255));&quot;&gt;&lt;br&gt;&lt;/span&gt;&lt;/div&gt;" style="text;strokeColor=#d79b00;fillColor=#ffe6cc;align=left;verticalAlign=top;spacingLeft=4;spacingRight=4;overflow=hidden;rotatable=0;points=[[0,0.5],[1,0.5]];portConstraint=eastwest;whiteSpace=wrap;html=1;spacingBottom=1;spacingTop=10;spacing=5;" vertex="1" parent="Vz9aFdPQ2xJ0MJbCfHlJ-36">
          <mxGeometry y="114" width="239" height="138" as="geometry" />
        </mxCell>
        <mxCell id="Vz9aFdPQ2xJ0MJbCfHlJ-40" value="" style="shape=singleArrow;whiteSpace=wrap;html=1;" vertex="1" parent="1">
          <mxGeometry x="269" y="590" width="92" height="60" as="geometry" />
        </mxCell>
      </root>
    </mxGraphModel>
  </diagram>
</mxfile>
